<?xml version="1.0" standalone="no"?>
<!DOCTYPE svg PUBLIC "-//W3C//DTD SVG 20010904//EN"
 "http://www.w3.org/TR/2001/REC-SVG-20010904/DTD/svg10.dtd">
<svg version="1.0" xmlns="http://www.w3.org/2000/svg"
 width="506.000000pt" height="506.000000pt" viewBox="0 0 506.000000 506.000000"
 preserveAspectRatio="xMidYMid meet">
<metadata>
Created by potrace 1.11, written by Peter Selinger 2001-2013
</metadata>
<g transform="translate(0.000000,506.000000) scale(0.100000,-0.100000)"
fill="#000000" stroke="none">
<path d="M981 4999 c-2 -51 65 -123 124 -134 24 -4 22 -2 -9 10 -63 24 -91 57
-107 120 -7 29 -7 29 -8 4z"/>
<path d="M4211 5000 c-3 -54 -75 -130 -123 -130 -10 0 -18 -5 -18 -10 0 -14
70 16 98 43 33 30 54 74 49 100 -4 20 -4 20 -6 -3z"/>
<path d="M1166 4872 c-10 -17 11 -35 29 -25 10 6 32 7 52 3 18 -5 42 -6 52 -3
40 10 121 -48 154 -112 9 -16 16 -26 17 -22 1 28 -59 100 -105 125 -29 16 -1
15 39 -2 42 -17 81 -56 106 -107 11 -21 23 -39 26 -39 3 0 -7 24 -24 53 -35
63 -97 110 -147 111 -19 1 -35 4 -35 7 0 3 -30 5 -66 5 -36 -1 -68 2 -70 6 -7
10 -21 10 -28 0z"/>
<path d="M3353 4873 c-13 -2 -23 -9 -23 -15 0 -6 3 -8 6 -5 4 3 15 2 25 -4 13
-7 19 -6 19 1 0 6 6 8 13 4 8 -5 8 -2 -2 9 -7 9 -14 16 -15 16 0 -1 -11 -4
-23 -6z"/>
<path d="M3792 4863 c2 -10 11 -16 19 -14 8 2 27 4 42 6 37 4 45 13 10 12 -15
0 -39 3 -51 7 -20 7 -23 5 -20 -11z"/>
<path d="M3093 4855 c-47 -14 -109 -58 -125 -89 -6 -12 8 -2 31 21 41 40 101
70 119 59 5 -3 23 -1 41 4 21 6 29 5 25 -2 -4 -6 1 -8 12 -4 11 3 33 7 51 8
55 4 25 13 -46 14 -38 0 -86 -5 -108 -11z"/>
<path d="M3416 4861 c9 -9 34 -9 34 -1 0 5 -9 8 -20 7 -10 -1 -17 -3 -14 -6z"/>
<path d="M3464 4862 c4 -3 14 -7 22 -8 9 -1 13 0 10 4 -4 3 -14 7 -22 8 -9 1
-13 0 -10 -4z"/>
<path d="M3555 4860 c3 -5 8 -10 11 -10 2 0 4 5 4 10 0 6 -5 10 -11 10 -5 0
-7 -4 -4 -10z"/>
<path d="M3656 4858 c3 -5 10 -6 15 -3 13 9 11 12 -6 12 -8 0 -12 -4 -9 -9z"/>
<path d="M3750 4866 c0 -2 7 -7 16 -10 8 -3 12 -2 9 4 -6 10 -25 14 -25 6z"/>
<path d="M3955 4860 c3 -5 8 -10 11 -10 2 0 4 5 4 10 0 6 -5 10 -11 10 -5 0
-7 -4 -4 -10z"/>
<path d="M1314 4828 c38 -26 69 -63 88 -105 23 -52 35 -58 13 -7 -23 55 -54
93 -88 109 -18 9 -24 10 -13 3z"/>
<path d="M3065 4808 c-39 -33 -76 -96 -74 -125 0 -12 3 -10 8 7 15 49 41 89
78 119 21 17 34 31 31 31 -4 0 -23 -14 -43 -32z"/>
<path d="M3132 4819 c-56 -37 -85 -99 -90 -198 -4 -70 -8 -89 -25 -103 -11
-10 -23 -16 -27 -13 -3 2 -7 -1 -7 -8 0 -7 -8 -26 -19 -42 l-19 -29 -3 29 c-2
17 -2 83 0 147 1 65 0 110 -4 100 -4 -9 -7 -81 -7 -160 -1 -105 -5 -151 -16
-171 -34 -66 -37 -122 -37 -741 -1 -607 -1 -616 21 -678 27 -80 57 -128 117
-186 115 -114 298 -153 455 -98 30 10 60 17 68 14 8 -3 11 0 8 5 -4 6 14 24
38 42 52 37 104 99 134 158 45 89 51 148 50 498 0 182 0 342 0 358 1 23 5 27
31 27 27 0 30 3 30 30 0 27 -3 30 -30 30 -27 0 -30 3 -30 30 0 17 -3 31 -7 31
-49 9 -53 6 -53 -27 0 -31 -3 -34 -30 -34 -26 0 -29 3 -27 28 2 23 -2 27 -23
27 -20 0 -26 -6 -28 -28 l-3 -27 -140 0 -139 0 1 -110 0 -110 72 -1 c40 -1 89
0 110 1 l37 2 0 -287 c0 -220 -3 -293 -14 -319 -70 -167 -301 -184 -393 -29
l-28 48 -3 595 c-2 424 0 607 9 636 41 152 242 210 357 104 33 -30 69 -96 75
-141 4 -23 6 -24 110 -24 65 0 108 4 108 10 13 90 -57 244 -144 320 -145 127
-346 148 -516 53 l-54 -30 5 79 c3 58 11 90 28 121 13 23 26 42 29 42 7 1 68
50 61 50 -3 0 -20 -10 -38 -21z"/>
<path d="M1474 4673 c2 -28 -1 -33 -20 -33 -13 0 -24 7 -27 18 -4 16 -5 16 -6
0 -1 -12 -9 -18 -26 -18 l-25 0 0 -430 0 -430 -27 -2 c-16 0 -36 -1 -45 0 -10
1 -18 -3 -18 -8 0 -6 -6 -10 -14 -10 -8 0 -17 -4 -20 -8 -8 -13 48 -8 62 6 22
20 62 15 62 -8 0 -11 -6 -20 -14 -20 -8 0 -17 -4 -20 -9 -4 -5 3 -7 14 -4 16
4 20 0 20 -20 0 -19 -6 -27 -22 -30 l-23 -4 23 -2 22 -1 0 -215 c0 -198 -1
-215 -17 -214 -33 1 -91 24 -120 46 -54 42 -68 54 -55 48 11 -6 12 -3 3 13 -6
12 -15 38 -20 59 -9 36 -9 37 -11 8 -1 -26 -3 -27 -10 -10 l-9 20 0 -20 c-1
-17 -3 -17 -11 -5 -6 9 -10 10 -10 3 0 -22 65 -96 113 -129 31 -22 66 -36 98
-40 l49 -7 -2 -231 c-3 -197 -5 -231 -18 -232 -36 -2 -40 -5 -40 -29 0 -24 12
-30 48 -26 7 1 12 -10 12 -29 0 -30 0 -30 55 -30 52 0 55 -1 55 -25 0 -21 5
-25 30 -25 25 0 29 4 27 23 -2 17 4 23 26 25 23 3 27 0 27 -22 0 -14 3 -27 8
-29 15 -9 52 13 52 32 0 17 10 19 118 24 140 6 158 9 240 47 113 53 201 162
235 292 17 65 17 472 0 523 -21 63 -56 126 -95 170 l-40 45 39 43 c48 52 88
133 101 206 16 89 9 297 -12 361 -38 110 -121 209 -218 258 -80 40 -152 52
-319 52 -155 0 -158 0 -162 23 l-4 22 -2 -23 c-2 -36 -44 -26 -53 13 l-7 30 3
-32z m426 -273 c105 -56 132 -111 135 -264 3 -166 -30 -238 -131 -286 -37 -17
-64 -20 -179 -20 l-135 0 0 288 c0 159 3 291 6 294 12 12 279 2 304 -12z m23
-823 c95 -56 113 -110 111 -337 -1 -195 -7 -233 -42 -280 -66 -88 -109 -98
-384 -90 -12 0 -18 8 -18 25 0 21 5 25 30 25 25 0 30 4 30 25 0 14 -4 26 -10
26 -5 1 -14 3 -20 4 -5 1 -14 3 -19 4 -5 0 -8 25 -7 54 1 37 6 52 16 53 8 1
23 2 33 3 11 1 17 9 17 26 0 25 -7 29 -45 26 -19 -2 -20 5 -23 225 -2 156 1
230 8 234 6 4 71 6 144 5 125 -1 136 -3 179 -28z m-753 -231 c0 -3 -4 -8 -10
-11 -5 -3 -10 -1 -10 4 0 6 5 11 10 11 6 0 10 -2 10 -4z"/>
<path d="M2405 4692 c-3 -3 -5 -16 -5 -29 0 -19 5 -23 30 -23 27 0 30 3 27 27
-2 19 -10 27 -25 28 -12 1 -24 -1 -27 -3z"/>
<path d="M2570 4669 c0 -27 -2 -28 -57 -31 l-58 -3 -1 -40 c-3 -79 -2 -76 -30
-69 -23 6 -25 4 -22 -22 2 -22 9 -30 28 -34 l25 -5 0 -827 0 -828 -28 0 c-25
0 -28 -3 -25 -27 2 -22 8 -28 26 -27 12 1 22 -1 23 -5 0 -3 1 -28 2 -56 l2
-50 140 0 140 0 0 25 c0 20 -6 26 -28 28 l-27 3 2 191 c3 179 4 191 22 194 18
3 36 20 36 37 0 10 -42 26 -53 20 -4 -2 -6 121 -5 274 l3 278 29 0 c24 1 29 5
32 28 2 25 0 27 -32 27 l-34 0 2 362 3 363 25 0 c19 0 24 5 24 25 1 20 -5 26
-27 28 -26 3 -27 6 -27 58 0 51 2 54 24 54 30 0 37 9 30 37 -4 14 -13 20 -30
19 -19 -1 -24 -6 -24 -28 0 -24 -4 -28 -30 -28 -27 0 -30 3 -26 25 3 14 2 25
-2 26 -51 6 -52 6 -52 -22z"/>
<path d="M2483 4683 c-18 -7 -16 -33 2 -33 8 0 15 9 15 20 0 11 -1 20 -2 19
-2 0 -9 -3 -15 -6z"/>
<path d="M2984 4635 c0 -13 3 -22 7 -19 8 4 6 30 -2 38 -3 3 -5 -5 -5 -19z"/>
<path d="M2735 4611 c0 -26 4 -29 27 -29 24 1 28 5 28 30 0 24 -4 28 -28 28
-24 0 -28 -4 -27 -29z"/>
<path d="M2980 4559 c0 -5 5 -7 10 -4 6 3 10 8 10 11 0 2 -4 4 -10 4 -5 0 -10
-5 -10 -11z"/>
<path d="M1181 3703 c-37 -37 -81 -110 -81 -135 0 -7 11 10 24 38 13 28 43 70
67 93 24 22 40 41 36 41 -4 0 -24 -17 -46 -37z"/>
<path d="M1263 3702 c-76 -40 -130 -114 -139 -190 -3 -28 -1 -24 11 17 9 30
21 62 27 70 36 49 68 76 113 97 28 13 43 24 35 23 -8 0 -30 -8 -47 -17z"/>
<path d="M1253 3639 c-24 -11 -43 -24 -43 -29 0 -5 -11 -26 -25 -46 -14 -20
-25 -42 -25 -48 1 -6 9 5 20 25 18 35 36 54 55 61 6 1 9 7 7 11 -1 4 17 17 40
27 24 11 36 19 28 19 -8 0 -34 -9 -57 -20z"/>
<path d="M1091 3504 c1 -27 5 -60 9 -74 5 -15 6 4 3 45 -7 82 -13 99 -12 29z"/>
<path d="M1122 3445 c0 -16 2 -22 5 -12 2 9 2 23 0 30 -3 6 -5 -1 -5 -18z"/>
<path d="M1140 3461 c0 -6 4 -12 8 -15 5 -3 9 1 9 9 0 8 -4 15 -9 15 -4 0 -8
-4 -8 -9z"/>
<path d="M2745 2752 c-5 -4 -11 -17 -11 -29 -1 -19 4 -23 27 -23 24 0 29 4 29
24 0 13 -7 27 -16 30 -19 7 -17 7 -29 -2z"/>
<path d="M3991 2694 l-34 -11 30 -6 c17 -3 39 -4 50 -1 25 7 79 -15 119 -49
42 -36 67 -90 75 -162 l6 -60 2 60 c2 46 5 55 12 40 8 -16 8 -15 4 8 -4 19 -2
26 5 22 15 -9 12 11 -3 24 -8 6 -18 7 -22 3 -5 -4 -6 0 -2 9 10 29 -74 92
-149 111 -27 7 -51 15 -54 18 -3 3 -20 1 -39 -6z m233 -115 c-3 -5 -10 -7 -15
-3 -5 3 -7 10 -3 15 3 5 10 7 15 3 5 -3 7 -10 3 -15z m16 -30 c0 8 2 12 5 9 3
-3 2 -13 -1 -22 -5 -14 -9 -15 -15 -4 -5 7 -9 18 -9 23 0 6 5 3 10 -5 8 -12
10 -12 10 -1z"/>
<path d="M3655 2690 c-3 -5 -1 -10 4 -10 6 0 11 5 11 10 0 6 -2 10 -4 10 -3 0
-8 -4 -11 -10z"/>
<path d="M3696 2691 c-19 -7 -19 -8 1 -13 12 -3 37 -2 55 2 18 4 26 8 18 9 -8
1 -24 3 -35 6 -11 2 -29 1 -39 -4z"/>
<path d="M3795 2690 c-3 -5 1 -10 10 -10 9 0 13 5 10 10 -3 6 -8 10 -10 10 -2
0 -7 -4 -10 -10z"/>
<path d="M3935 2690 c-3 -5 -1 -10 4 -10 6 0 11 5 11 10 0 6 -2 10 -4 10 -3 0
-8 -4 -11 -10z"/>
<path d="M3578 2683 c12 -2 32 -2 45 0 12 2 2 4 -23 4 -25 0 -35 -2 -22 -4z"/>
<path d="M3853 2683 c15 -2 37 -2 50 0 12 2 0 4 -28 4 -27 0 -38 -2 -22 -4z"/>
<path d="M2418 2642 c-11 -2 -18 -13 -18 -28 0 -20 5 -24 30 -24 25 0 30 4 30
24 0 25 -14 35 -42 28z"/>
<path d="M2470 2615 c0 -8 7 -15 15 -15 8 0 15 7 15 15 0 8 -7 15 -15 15 -8 0
-15 -7 -15 -15z"/>
<path d="M2458 2573 c-8 -29 2 -43 28 -43 20 0 24 5 24 30 0 25 -4 30 -24 30
-14 0 -25 -7 -28 -17z"/>
<path d="M4276 2505 c4 -11 10 -49 14 -85 l7 -65 1 55 c1 30 -6 69 -14 85 -8
17 -11 21 -8 10z"/>
<path d="M1977 2478 c-28 -7 -37 -14 -33 -25 4 -8 9 -25 12 -38 5 -21 8 -22
47 -12 23 5 43 11 45 12 2 2 0 19 -3 39 -8 39 -10 39 -68 24z"/>
<path d="M4257 2430 c1 -54 -46 -170 -69 -170 -23 0 -42 17 -28 25 19 12 70
87 70 104 0 9 -9 -3 -21 -26 -12 -24 -34 -54 -50 -67 -25 -22 -33 -23 -71 -14
-58 13 -154 3 -230 -24 -56 -20 -79 -23 -200 -20 l-138 3 0 24 0 25 -442 -2
-443 -3 -1 -107 c0 -68 4 -108 10 -110 6 -2 80 -3 163 -3 97 1 154 -3 156 -10
2 -5 3 -401 3 -879 -1 -741 1 -872 13 -884 12 -12 13 -22 2 -61 -15 -58 -56
-109 -109 -137 -37 -20 -39 -22 -20 -31 18 -8 15 -9 -18 -13 -107 -10 -172 -5
-194 15 -12 11 -24 19 -26 18 -11 -7 -23 0 -54 30 -35 34 -69 99 -72 140 -1
14 -6 24 -10 21 -18 -11 57 -174 81 -174 3 0 19 -12 35 -27 33 -30 63 -37 161
-37 l70 0 -40 -12 c-26 -8 -32 -13 -18 -13 30 -1 74 20 66 32 -3 5 2 7 13 3
42 -13 139 114 150 196 l7 48 93 0 94 0 0 889 0 888 153 1 c83 0 158 1 165 1
6 1 12 12 12 25 0 19 6 26 28 29 l27 4 -26 2 c-25 1 -27 4 -27 51 l0 50 134 0
c74 0 134 -2 134 -4 0 -10 -76 -51 -90 -48 -12 2 -12 1 -2 -6 11 -7 10 -12 -3
-26 -9 -9 -21 -16 -26 -16 -5 0 -8 -3 -7 -7 2 -5 -7 -24 -19 -43 -12 -19 -31
-64 -44 -100 -21 -64 -22 -74 -24 -655 l-2 -590 -26 1 c-23 1 -27 -3 -27 -27
0 -23 5 -28 28 -31 28 -3 27 0 23 -83 -1 -20 -6 -25 -26 -25 -21 0 -25 5 -25
28 0 21 -5 29 -17 29 -46 1 -54 -50 -10 -55 20 -2 27 -10 29 -30 2 -19 9 -27
23 -27 29 1 35 -23 26 -108 -1 -4 -7 -7 -13 -6 -35 4 -37 -1 -33 -77 2 -41 5
-77 8 -80 6 -6 80 -12 94 -7 6 3 9 15 7 29 -4 24 -4 24 81 24 l85 0 0 30 c0
25 4 30 25 30 14 0 25 3 26 8 0 4 2 15 4 25 2 13 -4 17 -26 17 l-29 0 0 250
c0 264 -1 257 41 252 4 -1 9 12 11 28 4 27 2 30 -24 30 -28 0 -28 0 -28 65 l0
65 219 0 220 0 3 -37 c2 -21 1 -175 -2 -343 l-5 -305 -24 0 c-20 0 -25 -5 -26
-27 -2 -28 4 -32 38 -29 13 2 17 -5 17 -28 0 -31 0 -31 55 -31 51 0 55 -2 55
-24 0 -17 7 -25 25 -28 30 -6 35 -2 35 29 0 18 5 23 25 23 23 0 29 -8 26 -36
-1 -13 27 -23 47 -17 6 3 12 15 12 28 0 18 -6 24 -26 27 l-26 3 -2 138 -1 137
28 0 c25 0 28 3 25 28 -2 15 -10 28 -18 28 -8 1 -20 2 -25 3 -9 1 -11 24 -6
62 1 4 18 9 39 13 47 7 108 39 151 80 38 36 81 119 80 156 -1 16 -5 9 -12 -20
-7 -31 -12 -39 -15 -25 -4 16 -7 14 -18 -15 -8 -24 -13 -29 -14 -15 0 15 -5
11 -15 -14 -8 -18 -12 -38 -8 -45 3 -6 3 -8 -2 -4 -5 5 -14 -1 -22 -12 -19
-27 -91 -67 -136 -75 -31 -6 -36 -5 -31 9 4 10 15 14 35 12 26 -3 29 0 29 25
0 26 -3 29 -32 29 l-33 0 -1 175 -1 175 23 0 c12 0 30 -8 40 -17 9 -10 27 -16
39 -15 16 2 33 -9 58 -39 34 -39 39 -52 61 -164 2 -14 4 -11 5 8 2 62 -21 120
-71 171 -26 27 -48 54 -48 59 0 5 -7 6 -16 3 -8 -3 -32 -3 -53 0 -31 5 -37 10
-37 31 0 18 4 23 18 20 10 -3 16 -1 12 4 -3 5 -11 9 -17 9 -7 0 -13 9 -14 20
-2 26 29 26 100 0 59 -22 133 -90 124 -113 -3 -9 1 -18 9 -21 18 -7 33 -44 36
-90 1 -19 5 -33 9 -31 3 3 2 26 -4 52 -5 27 -10 60 -10 75 0 16 -4 28 -8 28
-5 0 -30 20 -56 45 -47 44 -132 85 -176 85 l-22 0 0 313 c0 341 -7 401 -60
491 -29 49 -97 124 -135 148 -23 14 -24 17 -10 44 23 46 23 51 0 17 -21 -31
-39 -41 -53 -27 -3 3 4 23 17 43 12 20 26 45 30 56 12 32 19 122 10 128 -5 3
-8 -17 -7 -43z m-145 -384 c49 -23 88 -63 109 -112 17 -38 19 -69 20 -271 0
-125 0 -256 0 -289 l-1 -62 -217 2 -218 2 -3 279 c-3 307 0 334 51 392 65 74
175 99 259 59z m577 -1218 c-5 -10 -11 -18 -12 -18 -2 0 -3 8 -4 18 -1 10 5
19 12 19 10 0 11 -5 4 -19z m-1799 -754 c0 -8 -19 -13 -24 -6 -3 5 1 9 9 9 8
0 15 -2 15 -3z"/>
<path d="M2230 2379 c0 -31 -1 -32 -40 -26 -42 5 -43 4 -43 -45 0 -14 -8 -18
-36 -18 -32 0 -37 3 -39 27 -1 14 -4 28 -6 30 -6 7 -111 -26 -131 -41 -15 -11
-16 -16 -5 -36 11 -21 10 -26 -9 -39 -13 -9 -37 -28 -54 -42 l-31 -27 -27 21
-28 20 -24 -28 c-23 -27 -25 -28 -48 -12 -32 23 -32 22 -57 -21 l-21 -38 30
-13 c17 -7 31 -12 33 -10 1 2 10 16 19 32 20 31 25 32 51 12 19 -15 19 -16 -3
-56 -13 -23 -32 -68 -41 -100 -19 -62 -18 -33 -20 -753 l0 -208 -25 4 c-22 5
-25 2 -25 -23 0 -24 4 -29 25 -29 l25 0 0 -195 0 -195 -24 0 c-26 0 -36 -14
-28 -42 3 -13 11 -17 29 -14 23 5 24 3 21 -52 -2 -45 -6 -57 -20 -57 -22 0
-31 -11 -33 -35 -1 -16 5 -20 27 -20 26 0 28 -3 29 -42 2 -75 2 -75 39 -65 12
3 20 14 20 26 0 19 6 21 55 21 51 0 55 -2 55 -24 0 -26 31 -41 49 -23 8 8 11
8 11 0 0 -6 11 -8 25 -5 25 4 26 6 23 86 -3 69 -5 81 -20 78 -9 -1 -20 3 -24
9 -6 10 -9 201 -5 312 1 13 7 17 24 15 18 -2 23 2 25 25 3 23 0 27 -22 27 -29
0 -27 -9 -27 145 0 47 0 101 0 120 l1 35 220 0 220 0 0 -401 0 -400 23 3 c17
2 23 -3 25 -22 2 -14 7 -29 11 -33 4 -4 6 6 3 23 l-4 30 51 0 c56 0 51 7 55
-75 1 -11 9 -21 19 -23 21 -4 23 21 2 38 -8 7 -15 23 -15 36 0 19 5 24 25 24
l26 0 -3 833 -3 832 -28 60 c-15 33 -42 77 -59 99 -31 38 -31 38 -13 69 18 30
18 30 -10 53 -26 21 -27 23 -11 45 22 32 21 34 -19 58 l-35 20 -15 -30 c-15
-29 -15 -30 15 -47 33 -19 36 -28 15 -56 -13 -17 -16 -17 -75 13 -34 17 -78
33 -97 37 -31 6 -34 9 -31 38 3 32 9 35 59 21 23 -6 27 -3 33 21 9 34 -13 54
-56 54 -25 0 -28 -4 -28 -31z m-3 -330 c17 -6 50 -28 72 -49 65 -64 71 -98 68
-414 l-2 -271 -217 0 c-137 0 -219 4 -221 10 -1 6 -2 134 -2 285 1 255 3 278
22 321 50 111 157 156 280 118z"/>
<path d="M1848 2338 c-21 -12 -38 -24 -38 -27 0 -4 9 -17 19 -30 18 -23 18
-23 47 -5 16 10 30 19 32 20 2 1 -3 16 -10 32 l-13 31 -37 -21z"/>
<path d="M4280 2330 c0 -11 2 -20 4 -20 2 0 6 9 9 20 3 11 1 20 -4 20 -5 0 -9
-9 -9 -20z"/>
<path d="M619 2288 c-1 -2 -3 -304 -4 -673 -2 -368 -4 -673 -4 -677 -1 -5 -11
-8 -23 -8 -58 -1 -196 -79 -181 -103 3 -6 1 -7 -5 -3 -13 8 -41 -43 -34 -63 2
-8 0 -11 -6 -7 -11 6 -38 -61 -29 -70 3 -3 8 9 12 27 5 23 10 28 16 18 7 -11
9 -9 10 6 1 11 5 -10 9 -47 10 -86 41 -142 105 -190 37 -28 60 -38 88 -38 20
0 37 -3 38 -7 0 -5 2 -16 4 -26 3 -17 -1 -18 -33 -12 -97 18 -180 86 -203 167
-7 24 -16 47 -20 52 -5 5 -3 -8 2 -30 29 -104 98 -170 208 -198 29 -7 45 -17
47 -28 1 -10 -2 -18 -7 -18 -5 0 -5 -10 0 -22 5 -13 9 -27 10 -33 1 -6 88 -11
233 -13 262 -3 336 7 424 57 97 56 178 159 210 267 15 53 17 119 17 679 0 609
-1 621 -22 683 -12 35 -33 82 -48 105 -59 94 -180 176 -292 197 -45 8 -518 15
-522 8z m536 -245 c51 -27 90 -68 110 -116 14 -33 16 -113 16 -636 0 -655 1
-641 -59 -704 -54 -57 -91 -68 -231 -69 -69 0 -132 0 -138 1 -10 1 -13 163
-13 775 l0 774 138 -2 c118 -2 143 -5 177 -23z m-540 -1348 l0 -225 -27 0
c-15 0 -30 5 -33 10 -4 6 -12 10 -18 9 -25 -3 -36 2 -69 34 -55 50 -72 92 -73
173 0 40 -3 68 -6 62 -3 -5 -9 -2 -12 7 -4 10 -3 14 4 10 6 -4 9 0 7 10 -2 10
4 20 12 22 12 4 12 3 1 -5 -7 -6 -9 -12 -4 -15 10 -6 38 40 35 56 -1 4 3 7 8
7 6 0 21 9 33 20 20 19 94 48 127 49 13 1 15 -30 15 -224z"/>
<path d="M3540 2179 c0 -5 9 -9 20 -9 11 0 20 2 20 4 0 2 -9 6 -20 9 -11 3
-20 1 -20 -4z"/>
<path d="M3595 2180 c-3 -5 1 -10 10 -10 9 0 13 5 10 10 -3 6 -8 10 -10 10 -2
0 -7 -4 -10 -10z"/>
<path d="M3660 2180 c0 -5 5 -10 11 -10 5 0 7 5 4 10 -3 6 -8 10 -11 10 -2 0
-4 -4 -4 -10z"/>
<path d="M3610 2119 c0 -5 5 -7 10 -4 6 3 10 8 10 11 0 2 -4 4 -10 4 -5 0 -10
-5 -10 -11z"/>
<path d="M4546 1185 c48 -18 113 -78 137 -127 9 -18 17 -27 17 -20 0 24 -57
97 -97 124 -21 15 -51 29 -68 32 -22 5 -18 2 11 -9z"/>
<path d="M4700 999 c0 -13 5 -31 10 -39 7 -11 8 -5 4 20 -8 43 -14 51 -14 19z"/>
<path d="M350 679 c0 -5 5 -7 10 -4 6 3 10 8 10 11 0 2 -4 4 -10 4 -5 0 -10
-5 -10 -11z"/>
<path d="M325 660 c3 -5 8 -10 11 -10 2 0 4 5 4 10 0 6 -5 10 -11 10 -5 0 -7
-4 -4 -10z"/>
<path d="M332 573 c5 -21 22 -58 36 -83 15 -25 25 -49 24 -53 -1 -4 6 -11 15
-14 10 -4 38 -19 62 -35 25 -15 52 -28 60 -28 8 0 -9 12 -38 27 -30 14 -56 34
-58 44 -3 10 -13 21 -23 24 -22 7 -70 98 -70 132 0 13 -4 23 -9 23 -6 0 -5
-15 1 -37z"/>
<path d="M3810 430 c0 -11 6 -20 13 -20 19 0 27 10 20 26 -8 21 -33 17 -33 -6z"/>
<path d="M558 353 c6 -2 18 -2 25 0 6 3 1 5 -13 5 -14 0 -19 -2 -12 -5z"/>
<path d="M3857 343 c-4 -3 -7 -17 -7 -30 0 -19 5 -23 30 -23 27 0 30 3 30 30
0 25 -4 30 -23 30 -13 0 -27 -3 -30 -7z"/>
<path d="M1667 333 c-13 -12 -7 -33 8 -33 8 0 15 9 15 20 0 20 -11 26 -23 13z"/>
<path d="M3810 322 c0 -10 7 -19 15 -19 8 0 15 9 15 19 0 10 -7 18 -15 18 -8
0 -15 -8 -15 -18z"/>
<path d="M3800 261 c0 -25 3 -28 25 -23 14 2 27 8 30 12 10 17 -8 40 -31 40
-20 0 -24 -5 -24 -29z"/>
<path d="M1757 234 c-2 -2 -2 -16 1 -29 3 -18 11 -25 27 -25 23 0 39 29 26 47
-6 9 -46 15 -54 7z"/>
<path d="M1714 219 c-10 -17 13 -36 27 -22 12 12 4 33 -11 33 -5 0 -12 -5 -16
-11z"/>
<path d="M2436 200 c16 -60 94 -149 152 -172 45 -17 86 -28 76 -20 -5 5 -28
14 -51 22 -56 17 -128 83 -159 145 -14 28 -22 39 -18 25z"/>
<path d="M2579 153 c36 -52 119 -100 158 -90 15 4 15 5 -3 6 -41 2 -99 34
-138 75 -32 34 -35 35 -17 9z"/>
<path d="M2788 63 c6 -2 18 -2 25 0 6 3 1 5 -13 5 -14 0 -19 -2 -12 -5z"/>
</g>
</svg>
